<svg xmlns="http://www.w3.org/2000/svg" viewBox="0 0 512 512" width="512" height="512">
  
  
  <defs>
    <clipPath id="squircle"><rect width="512" height="512" rx="116"></rect></clipPath>
    <radialGradient id="bloom-purple" cx="0.16" cy="0.10" r="0.75">
      <stop offset="0" stop-color="#5a20a8" stop-opacity="0.95"></stop>
      <stop offset="0.55" stop-color="#2a0a6e" stop-opacity="0.45"></stop>
      <stop offset="1" stop-color="#2a0a6e" stop-opacity="0"></stop>
    </radialGradient>
    <radialGradient id="bloom-blue" cx="0.88" cy="0.92" r="0.8">
      <stop offset="0" stop-color="#1a3a9c" stop-opacity="0.95"></stop>
      <stop offset="1" stop-color="#0d1b60" stop-opacity="0"></stop>
    </radialGradient>
  </defs>

  <g clip-path="url(#squircle)">
    <rect width="512" height="512" fill="#0e0c24"></rect>
    <rect width="512" height="512" fill="url(#bloom-purple)"></rect>
    <rect width="512" height="512" fill="url(#bloom-blue)"></rect>
  </g>
  <rect x="7" y="7" width="498" height="498" rx="110" fill="none" stroke="rgba(255,255,255,0.16)" stroke-width="5"></rect>

  
  <polygon points="192,78 320,78 256,124" fill="#ffffff" stroke="#ffffff" stroke-width="16" stroke-linejoin="round"></polygon>

  
  <path fill="#ffffff" d="M152.98 298L130.21 298L130.21 202.46L100.02 202.46L100.02 183.66L183.18 183.66L183.18 202.46L152.98 202.46L152.98 298ZM213.04 298L189.45 298Q193.57 281.17 197.70 265.82Q201.82 250.48 205.95 236.37Q210.07 222.26 214.03 209.15Q217.99 196.03 221.95 183.66L221.95 183.66L246.70 183.66Q250.66 196.03 254.79 209.39Q258.91 222.76 262.88 236.95Q266.83 251.14 270.79 266.40Q274.75 281.67 278.55 298L278.55 298L254.13 298L248.85 271.60L218.32 271.60L213.04 298ZM222.61 252.79L222.61 252.79L244.89 252.79Q243.57 244.54 241.92 237.12Q240.27 229.69 238.29 222.02Q236.31 214.34 233.83 205.76L233.83 205.76Q231.36 214.34 229.38 222.02Q227.40 229.69 225.75 237.12Q224.10 244.54 222.61 252.79ZM332.01 300.48L332.01 300.48Q317.65 300.48 307.18 293.79Q296.70 287.11 290.93 273.83Q285.15 260.55 285.15 240.75L285.15 240.75Q285.15 221.11 291.83 207.83Q298.51 194.55 309.74 187.78Q320.95 181.01 334.65 181.01L334.65 181.01Q343.73 181.01 350.00 182.66Q356.26 184.31 360.23 186.21Q364.19 188.11 366 189.26L366 189.26L360.06 207.41Q355.94 204.77 350.00 202.80Q344.06 200.81 337.78 200.81L337.78 200.81Q327.23 200.81 320.71 205.85Q314.19 210.88 311.22 219.87Q308.25 228.87 308.25 240.75L308.25 240.75Q308.25 254.28 311.14 263.10Q314.02 271.93 319.80 276.30Q325.57 280.68 333.82 280.68L333.82 280.68Q335.64 280.68 338.12 280.35Q340.59 280.01 342.74 279.85L342.74 279.85L342.74 238.10L365.34 238.10L365.34 295.19Q361.38 296.85 352.72 298.66Q344.06 300.48 332.01 300.48Z"></path>

  
  <path fill="#ffffff" d="M417.57 256.42L398.76 256.42Q397.94 250.48 397.19 245.61Q396.45 240.75 395.96 235.96Q395.46 231.18 395.13 225.81Q394.80 220.45 394.80 213.85L394.80 213.85L394.80 183.66L421.20 183.66L421.20 213.85Q421.20 220.62 420.95 225.89Q420.71 231.18 420.21 235.96Q419.72 240.75 419.06 245.61Q418.40 250.48 417.57 256.42L417.57 256.42ZM408 300.14L408 300.14Q402.06 300.14 397.36 296.10Q392.66 292.06 392.66 284.80L392.66 284.80Q392.66 277.70 397.36 273.75Q402.06 269.79 408 269.79L408 269.79Q413.94 269.79 418.64 273.75Q423.35 277.70 423.35 284.80L423.35 284.80Q423.35 292.06 418.64 296.10Q413.94 300.14 408 300.14Z"></path>

  
  <circle cx="256" cy="370" r="16" fill="#ffffff" opacity="0.92"></circle>
  <circle cx="222" cy="404" r="16" fill="#ffffff" opacity="0.55"></circle>
  <circle cx="290" cy="404" r="16" fill="#ffffff" opacity="0.55"></circle>
  <circle cx="256" cy="438" r="16" fill="#ffffff" opacity="0.92"></circle>
</svg>